<svg width="120" height="15" viewBox="0 0 120 15" fill="none" xmlns="http://www.w3.org/2000/svg">
<path d="M0.46 15V0.899999H3.04L7.8 9.56L12.54 0.899999H15.08V15H12.26V6.4L8.62 12.88H6.88L3.26 6.46V15H0.46ZM17.9395 15V0.899999H27.5995V3.32H20.8995V6.62H27.1595V9.06H20.8995V12.58H27.5995V15H17.9395ZM30.0489 15V0.899999H33.1489V15H30.0489ZM35.9669 15V0.899999H38.2669L45.3069 9.88V0.899999H48.1869V15H45.9069L38.8469 6V15H35.9669ZM56.6319 15V0.899999H59.2119L63.9719 9.56L68.7119 0.899999H71.2519V15H68.4319V6.4L64.7919 12.88H63.0519L59.4319 6.46V15H56.6319ZM74.1114 15V0.899999H77.2114V15H74.1114ZM80.0294 15V0.899999H82.3294L89.3694 9.88V0.899999H92.2494V15H89.9694L82.9094 6V15H80.0294ZM95.088 15V0.899999H104.748V3.32H98.048V6.62H104.308V9.06H98.048V12.58H104.748V15H95.088ZM107.197 15V0.899999H113.637C115.211 0.899999 116.424 1.28 117.277 2.04C118.131 2.8 118.557 3.86 118.557 5.22C118.557 6.27333 118.284 7.15333 117.737 7.86C117.204 8.55333 116.437 9.02667 115.437 9.28C116.144 9.49333 116.724 10.0067 117.177 10.82L119.457 15H116.037L113.597 10.5C113.397 10.14 113.151 9.89333 112.857 9.76C112.564 9.61333 112.217 9.54 111.817 9.54H110.297V15H107.197ZM110.297 7.3H113.077C114.744 7.3 115.577 6.63333 115.577 5.3C115.577 3.98 114.744 3.32 113.077 3.32H110.297V7.3Z" fill="white"/>
<path d="M0.46 15V0.899999H3.04L7.8 9.56L12.54 0.899999H15.08V15H12.26V6.4L8.62 12.88H6.88L3.26 6.46V15H0.46ZM17.9395 15V0.899999H27.5995V3.32H20.8995V6.62H27.1595V9.06H20.8995V12.58H27.5995V15H17.9395ZM30.0489 15V0.899999H33.1489V15H30.0489ZM35.9669 15V0.899999H38.2669L45.3069 9.88V0.899999H48.1869V15H45.9069L38.8469 6V15H35.9669ZM56.6319 15V0.899999H59.2119L63.9719 9.56L68.7119 0.899999H71.2519V15H68.4319V6.4L64.7919 12.88H63.0519L59.4319 6.46V15H56.6319ZM74.1114 15V0.899999H77.2114V15H74.1114ZM80.0294 15V0.899999H82.3294L89.3694 9.88V0.899999H92.2494V15H89.9694L82.9094 6V15H80.0294ZM95.088 15V0.899999H104.748V3.32H98.048V6.62H104.308V9.06H98.048V12.58H104.748V15H95.088ZM107.197 15V0.899999H113.637C115.211 0.899999 116.424 1.28 117.277 2.04C118.131 2.8 118.557 3.86 118.557 5.22C118.557 6.27333 118.284 7.15333 117.737 7.86C117.204 8.55333 116.437 9.02667 115.437 9.28C116.144 9.49333 116.724 10.0067 117.177 10.82L119.457 15H116.037L113.597 10.5C113.397 10.14 113.151 9.89333 112.857 9.76C112.564 9.61333 112.217 9.54 111.817 9.54H110.297V15H107.197ZM110.297 7.3H113.077C114.744 7.3 115.577 6.63333 115.577 5.3C115.577 3.98 114.744 3.32 113.077 3.32H110.297V7.3Z" fill="url(#paint0_linear_38_178)"/>
<defs>
<linearGradient id="paint0_linear_38_178" x1="-4.18013" y1="31.6034" x2="44.6453" y2="-32.9509" gradientUnits="userSpaceOnUse">
<stop stop-color="#0D748B"/>
<stop offset="1" stop-color="#1A0B73"/>
</linearGradient>
</defs>
</svg>
