<svg width="40" height="40" viewBox="0 0 40 40" fill="none" xmlns="http://www.w3.org/2000/svg">
<rect width="40" height="40" rx="20" fill="#F0F5FB"/>
<g clip-path="url(#clip0_38_188)">
<path d="M27.6545 13.2545C27.1984 12.7969 26.6565 12.4338 26.0598 12.186C25.4631 11.9382 24.8233 11.8107 24.1772 11.8107C23.5311 11.8107 22.8914 11.9382 22.2947 12.186C21.6979 12.4338 21.156 12.7969 20.6999 13.2545L19.9999 13.9636L19.2999 13.2545C18.8439 12.7969 18.3019 12.4338 17.7052 12.186C17.1085 11.9382 16.4688 11.8107 15.8227 11.8107C15.1766 11.8107 14.5368 11.9382 13.9401 12.186C13.3434 12.4338 12.8015 12.7969 12.3454 13.2545C10.4181 15.1818 10.2999 18.4364 12.7272 20.9091L19.9999 28.1818L27.2727 20.9091C29.6999 18.4364 29.5818 15.1818 27.6545 13.2545Z" stroke="white" stroke-width="1.8" stroke-linecap="round" stroke-linejoin="round"/>
<path d="M27.6545 13.2545C27.1984 12.7969 26.6565 12.4338 26.0598 12.186C25.4631 11.9382 24.8233 11.8107 24.1772 11.8107C23.5311 11.8107 22.8914 11.9382 22.2947 12.186C21.6979 12.4338 21.156 12.7969 20.6999 13.2545L19.9999 13.9636L19.2999 13.2545C18.8439 12.7969 18.3019 12.4338 17.7052 12.186C17.1085 11.9382 16.4688 11.8107 15.8227 11.8107C15.1766 11.8107 14.5368 11.9382 13.9401 12.186C13.3434 12.4338 12.8015 12.7969 12.3454 13.2545C10.4181 15.1818 10.2999 18.4364 12.7272 20.9091L19.9999 28.1818L27.2727 20.9091C29.6999 18.4364 29.5818 15.1818 27.6545 13.2545Z" stroke="url(#paint0_linear_38_188)" stroke-width="1.8" stroke-linecap="round" stroke-linejoin="round"/>
</g>
<defs>
<linearGradient id="paint0_linear_38_188" x1="10.4236" y1="34.0047" x2="28.6422" y2="28.0306" gradientUnits="userSpaceOnUse">
<stop stop-color="#0D748B"/>
<stop offset="1" stop-color="#1A0B73"/>
</linearGradient>
<clipPath id="clip0_38_188">
<rect width="20" height="20" fill="white" transform="translate(10 10)"/>
</clipPath>
</defs>
</svg>
