<svg width="40" height="40" viewBox="0 0 40 40" fill="none" xmlns="http://www.w3.org/2000/svg">
<rect width="40" height="40" rx="20" fill="#F0F5FB"/>
<path d="M9 10.815C9 10.6254 9.07558 10.4435 9.21012 10.3094C9.34466 10.1753 9.52713 10.1 9.71739 10.1H11.8696C12.0296 10.1 12.185 10.1534 12.3111 10.2516C12.4372 10.3498 12.5267 10.4872 12.5654 10.642L13.1465 12.96H29.8043C29.9133 12.96 30.0208 12.9848 30.1188 13.0324C30.2167 13.0801 30.3025 13.1493 30.3695 13.2349C30.4366 13.3205 30.4832 13.4202 30.5059 13.5264C30.5285 13.6327 30.5266 13.7426 30.5002 13.848L28.348 22.428C28.3093 22.5828 28.2198 22.7202 28.0937 22.8184C27.9676 22.9166 27.8122 22.97 27.6522 22.97H14.7391C14.5791 22.97 14.4237 22.9166 14.2976 22.8184C14.1715 22.7202 14.082 22.5828 14.0433 22.428L11.31 11.53H9.71739C9.52713 11.53 9.34466 11.4547 9.21012 11.3206C9.07558 11.1865 9 11.0046 9 10.815ZM13.5052 14.39L15.2987 21.54H27.0926L28.8861 14.39H13.5052ZM16.1739 25.83C15.7934 25.83 15.4284 25.9807 15.1594 26.2488C14.8903 26.517 14.7391 26.8807 14.7391 27.26C14.7391 27.6393 14.8903 28.003 15.1594 28.2712C15.4284 28.5393 15.7934 28.69 16.1739 28.69C16.5544 28.69 16.9194 28.5393 17.1885 28.2712C17.4575 28.003 17.6087 27.6393 17.6087 27.26C17.6087 26.8807 17.4575 26.517 17.1885 26.2488C16.9194 25.9807 16.5544 25.83 16.1739 25.83ZM13.3043 27.26C13.3043 26.5015 13.6067 25.774 14.1448 25.2377C14.683 24.7013 15.4129 24.4 16.1739 24.4C16.935 24.4 17.6649 24.7013 18.203 25.2377C18.7411 25.774 19.0435 26.5015 19.0435 27.26C19.0435 28.0185 18.7411 28.746 18.203 29.2823C17.6649 29.8187 16.935 30.12 16.1739 30.12C15.4129 30.12 14.683 29.8187 14.1448 29.2823C13.6067 28.746 13.3043 28.0185 13.3043 27.26ZM26.2174 25.83C25.8369 25.83 25.4719 25.9807 25.2028 26.2488C24.9338 26.517 24.7826 26.8807 24.7826 27.26C24.7826 27.6393 24.9338 28.003 25.2028 28.2712C25.4719 28.5393 25.8369 28.69 26.2174 28.69C26.5979 28.69 26.9629 28.5393 27.2319 28.2712C27.501 28.003 27.6522 27.6393 27.6522 27.26C27.6522 26.8807 27.501 26.517 27.2319 26.2488C26.9629 25.9807 26.5979 25.83 26.2174 25.83ZM23.3478 27.26C23.3478 26.5015 23.6502 25.774 24.1883 25.2377C24.7264 24.7013 25.4563 24.4 26.2174 24.4C26.9784 24.4 27.7083 24.7013 28.2465 25.2377C28.7846 25.774 29.087 26.5015 29.087 27.26C29.087 28.0185 28.7846 28.746 28.2465 29.2823C27.7083 29.8187 26.9784 30.12 26.2174 30.12C25.4563 30.12 24.7264 29.8187 24.1883 29.2823C23.6502 28.746 23.3478 28.0185 23.3478 27.26Z" fill="white"/>
<path d="M9 10.815C9 10.6254 9.07558 10.4435 9.21012 10.3094C9.34466 10.1753 9.52713 10.1 9.71739 10.1H11.8696C12.0296 10.1 12.185 10.1534 12.3111 10.2516C12.4372 10.3498 12.5267 10.4872 12.5654 10.642L13.1465 12.96H29.8043C29.9133 12.96 30.0208 12.9848 30.1188 13.0324C30.2167 13.0801 30.3025 13.1493 30.3695 13.2349C30.4366 13.3205 30.4832 13.4202 30.5059 13.5264C30.5285 13.6327 30.5266 13.7426 30.5002 13.848L28.348 22.428C28.3093 22.5828 28.2198 22.7202 28.0937 22.8184C27.9676 22.9166 27.8122 22.97 27.6522 22.97H14.7391C14.5791 22.97 14.4237 22.9166 14.2976 22.8184C14.1715 22.7202 14.082 22.5828 14.0433 22.428L11.31 11.53H9.71739C9.52713 11.53 9.34466 11.4547 9.21012 11.3206C9.07558 11.1865 9 11.0046 9 10.815ZM13.5052 14.39L15.2987 21.54H27.0926L28.8861 14.39H13.5052ZM16.1739 25.83C15.7934 25.83 15.4284 25.9807 15.1594 26.2488C14.8903 26.517 14.7391 26.8807 14.7391 27.26C14.7391 27.6393 14.8903 28.003 15.1594 28.2712C15.4284 28.5393 15.7934 28.69 16.1739 28.69C16.5544 28.69 16.9194 28.5393 17.1885 28.2712C17.4575 28.003 17.6087 27.6393 17.6087 27.26C17.6087 26.8807 17.4575 26.517 17.1885 26.2488C16.9194 25.9807 16.5544 25.83 16.1739 25.83ZM13.3043 27.26C13.3043 26.5015 13.6067 25.774 14.1448 25.2377C14.683 24.7013 15.4129 24.4 16.1739 24.4C16.935 24.4 17.6649 24.7013 18.203 25.2377C18.7411 25.774 19.0435 26.5015 19.0435 27.26C19.0435 28.0185 18.7411 28.746 18.203 29.2823C17.6649 29.8187 16.935 30.12 16.1739 30.12C15.4129 30.12 14.683 29.8187 14.1448 29.2823C13.6067 28.746 13.3043 28.0185 13.3043 27.26ZM26.2174 25.83C25.8369 25.83 25.4719 25.9807 25.2028 26.2488C24.9338 26.517 24.7826 26.8807 24.7826 27.26C24.7826 27.6393 24.9338 28.003 25.2028 28.2712C25.4719 28.5393 25.8369 28.69 26.2174 28.69C26.5979 28.69 26.9629 28.5393 27.2319 28.2712C27.501 28.003 27.6522 27.6393 27.6522 27.26C27.6522 26.8807 27.501 26.517 27.2319 26.2488C26.9629 25.9807 26.5979 25.83 26.2174 25.83ZM23.3478 27.26C23.3478 26.5015 23.6502 25.774 24.1883 25.2377C24.7264 24.7013 25.4563 24.4 26.2174 24.4C26.9784 24.4 27.7083 24.7013 28.2465 25.2377C28.7846 25.774 29.087 26.5015 29.087 27.26C29.087 28.0185 28.7846 28.746 28.2465 29.2823C27.7083 29.8187 26.9784 30.12 26.2174 30.12C25.4563 30.12 24.7264 29.8187 24.1883 29.2823C23.6502 28.746 23.3478 28.0185 23.3478 27.26Z" fill="url(#paint0_linear_38_182)"/>
<defs>
<linearGradient id="paint0_linear_38_182" x1="8.43437" y1="37.2408" x2="30.1183" y2="30.3637" gradientUnits="userSpaceOnUse">
<stop stop-color="#0D748B"/>
<stop offset="1" stop-color="#1A0B73"/>
</linearGradient>
</defs>
</svg>
